<mxfile host="app.diagrams.net" modified="2024-04-14T12:14:55.890Z" agent="Mozilla/5.0 (Windows NT 10.0; Win64; x64; rv:124.0) Gecko/20100101 Firefox/124.0" etag="dxP1984QVeh7gzCEaBTf" version="24.2.5" type="device">
  <diagram name="Page-1" id="DgyS_MXJKcZcXVV9sVFN">
    <mxGraphModel dx="1991" dy="717" grid="0" gridSize="10" guides="1" tooltips="1" connect="1" arrows="1" fold="1" page="0" pageScale="1" pageWidth="850" pageHeight="1100" math="0" shadow="0">
      <root>
        <mxCell id="0" />
        <mxCell id="1" parent="0" />
        <mxCell id="X4ZpD0xZ3pDAeyfBsWEG-1" value="START" style="ellipse;whiteSpace=wrap;html=1;aspect=fixed;" parent="1" vertex="1">
          <mxGeometry x="29" y="138" width="80" height="80" as="geometry" />
        </mxCell>
        <mxCell id="X4ZpD0xZ3pDAeyfBsWEG-4" value="" style="curved=1;endArrow=classic;html=1;rounded=0;exitX=1;exitY=1;exitDx=0;exitDy=0;entryX=1;entryY=0;entryDx=0;entryDy=0;" parent="1" source="X4ZpD0xZ3pDAeyfBsWEG-1" target="X4ZpD0xZ3pDAeyfBsWEG-1" edge="1">
          <mxGeometry width="50" height="50" relative="1" as="geometry">
            <mxPoint x="133" y="215" as="sourcePoint" />
            <mxPoint x="183" y="165" as="targetPoint" />
            <Array as="points">
              <mxPoint x="154" y="229" />
              <mxPoint x="152" y="123" />
            </Array>
          </mxGeometry>
        </mxCell>
        <mxCell id="X4ZpD0xZ3pDAeyfBsWEG-5" value="!bgn / c0=0" style="edgeLabel;html=1;align=center;verticalAlign=middle;resizable=0;points=[];" parent="X4ZpD0xZ3pDAeyfBsWEG-4" vertex="1" connectable="0">
          <mxGeometry x="0.062" y="-2" relative="1" as="geometry">
            <mxPoint y="7" as="offset" />
          </mxGeometry>
        </mxCell>
        <mxCell id="X4ZpD0xZ3pDAeyfBsWEG-7" value="" style="endArrow=classic;html=1;rounded=0;exitX=0.5;exitY=1;exitDx=0;exitDy=0;entryX=0.5;entryY=0;entryDx=0;entryDy=0;" parent="1" target="X4ZpD0xZ3pDAeyfBsWEG-10" edge="1">
          <mxGeometry width="50" height="50" relative="1" as="geometry">
            <mxPoint x="69" y="218" as="sourcePoint" />
            <mxPoint x="69" y="261" as="targetPoint" />
          </mxGeometry>
        </mxCell>
        <mxCell id="X4ZpD0xZ3pDAeyfBsWEG-8" value="bgn / c0=1" style="edgeLabel;html=1;align=center;verticalAlign=middle;resizable=0;points=[];" parent="X4ZpD0xZ3pDAeyfBsWEG-7" vertex="1" connectable="0">
          <mxGeometry x="-0.1111" y="-1" relative="1" as="geometry">
            <mxPoint as="offset" />
          </mxGeometry>
        </mxCell>
        <mxCell id="X4ZpD0xZ3pDAeyfBsWEG-15" value="" style="edgeStyle=orthogonalEdgeStyle;rounded=0;orthogonalLoop=1;jettySize=auto;html=1;" parent="1" source="X4ZpD0xZ3pDAeyfBsWEG-10" target="X4ZpD0xZ3pDAeyfBsWEG-14" edge="1">
          <mxGeometry relative="1" as="geometry" />
        </mxCell>
        <mxCell id="X4ZpD0xZ3pDAeyfBsWEG-21" value="*" style="edgeLabel;html=1;align=center;verticalAlign=middle;resizable=0;points=[];" parent="X4ZpD0xZ3pDAeyfBsWEG-15" vertex="1" connectable="0">
          <mxGeometry x="0.0392" y="3" relative="1" as="geometry">
            <mxPoint x="-2" as="offset" />
          </mxGeometry>
        </mxCell>
        <mxCell id="X4ZpD0xZ3pDAeyfBsWEG-10" value="&lt;div&gt;S0&lt;/div&gt;" style="ellipse;whiteSpace=wrap;html=1;aspect=fixed;" parent="1" vertex="1">
          <mxGeometry x="29" y="261" width="80" height="80" as="geometry" />
        </mxCell>
        <mxCell id="X4ZpD0xZ3pDAeyfBsWEG-32" style="edgeStyle=orthogonalEdgeStyle;rounded=0;orthogonalLoop=1;jettySize=auto;html=1;entryX=0.5;entryY=0;entryDx=0;entryDy=0;" parent="1" source="X4ZpD0xZ3pDAeyfBsWEG-14" target="X4ZpD0xZ3pDAeyfBsWEG-20" edge="1">
          <mxGeometry relative="1" as="geometry" />
        </mxCell>
        <mxCell id="X4ZpD0xZ3pDAeyfBsWEG-33" value="&lt;div&gt;q0==000 |&lt;/div&gt;&lt;div&gt;q0==111&lt;br&gt;&lt;/div&gt;" style="edgeLabel;html=1;align=center;verticalAlign=middle;resizable=0;points=[];" parent="X4ZpD0xZ3pDAeyfBsWEG-32" vertex="1" connectable="0">
          <mxGeometry x="-0.2134" y="-2" relative="1" as="geometry">
            <mxPoint x="2" y="65" as="offset" />
          </mxGeometry>
        </mxCell>
        <mxCell id="X4ZpD0xZ3pDAeyfBsWEG-14" value="SC" style="ellipse;whiteSpace=wrap;html=1;aspect=fixed;" parent="1" vertex="1">
          <mxGeometry x="29" y="370" width="80" height="80" as="geometry" />
        </mxCell>
        <mxCell id="X4ZpD0xZ3pDAeyfBsWEG-16" value="&lt;div&gt;S2&lt;/div&gt;&lt;div&gt;____________&lt;/div&gt;&lt;div&gt;&lt;br&gt;&lt;/div&gt;&lt;div&gt;c2=1&lt;br&gt;&lt;/div&gt;" style="ellipse;whiteSpace=wrap;html=1;aspect=fixed;" parent="1" vertex="1">
          <mxGeometry x="-137.5" y="494" width="80" height="80" as="geometry" />
        </mxCell>
        <mxCell id="X4ZpD0xZ3pDAeyfBsWEG-17" value="&lt;div&gt;S3&lt;/div&gt;&lt;div&gt;____________&lt;/div&gt;&lt;div&gt;&lt;br&gt;&lt;/div&gt;&lt;div&gt;c3=1&lt;br&gt;&lt;/div&gt;" style="ellipse;whiteSpace=wrap;html=1;aspect=fixed;" parent="1" vertex="1">
          <mxGeometry x="-33" y="492" width="80" height="80" as="geometry" />
        </mxCell>
        <mxCell id="X4ZpD0xZ3pDAeyfBsWEG-18" value="&lt;div&gt;S4&lt;/div&gt;&lt;div&gt;____________&lt;/div&gt;&lt;div&gt;c2=1&lt;/div&gt;&lt;div&gt;c4=1&lt;br&gt;&lt;/div&gt;" style="ellipse;whiteSpace=wrap;html=1;aspect=fixed;" parent="1" vertex="1">
          <mxGeometry x="89.5" y="494" width="80" height="80" as="geometry" />
        </mxCell>
        <mxCell id="X4ZpD0xZ3pDAeyfBsWEG-19" value="&lt;div&gt;S5&lt;/div&gt;&lt;div&gt;____________&lt;/div&gt;&lt;div&gt;c2=1&lt;/div&gt;&lt;div&gt;c3=1&lt;/div&gt;&lt;div&gt;c4=1&lt;br&gt;&lt;/div&gt;" style="ellipse;whiteSpace=wrap;html=1;aspect=fixed;" parent="1" vertex="1">
          <mxGeometry x="195.5" y="494" width="80" height="80" as="geometry" />
        </mxCell>
        <mxCell id="X4ZpD0xZ3pDAeyfBsWEG-20" value="&lt;div&gt;S6&lt;/div&gt;&lt;div&gt;____________&lt;/div&gt;&lt;div&gt;&lt;br&gt;&lt;/div&gt;&lt;div&gt;c5=1&lt;br&gt;&lt;/div&gt;" style="ellipse;whiteSpace=wrap;html=1;aspect=fixed;" parent="1" vertex="1">
          <mxGeometry x="29" y="614" width="80" height="80" as="geometry" />
        </mxCell>
        <mxCell id="X4ZpD0xZ3pDAeyfBsWEG-22" value="" style="curved=1;endArrow=classic;html=1;rounded=0;exitX=0;exitY=0.5;exitDx=0;exitDy=0;entryX=0.5;entryY=0;entryDx=0;entryDy=0;" parent="1" source="X4ZpD0xZ3pDAeyfBsWEG-14" target="X4ZpD0xZ3pDAeyfBsWEG-16" edge="1">
          <mxGeometry width="50" height="50" relative="1" as="geometry">
            <mxPoint x="-59" y="558" as="sourcePoint" />
            <mxPoint x="-9" y="508" as="targetPoint" />
            <Array as="points">
              <mxPoint x="-104" y="406" />
            </Array>
          </mxGeometry>
        </mxCell>
        <mxCell id="X4ZpD0xZ3pDAeyfBsWEG-23" value="&lt;div&gt;q0==010 |&lt;/div&gt;&lt;div&gt;q0==001&lt;br&gt;&lt;/div&gt;" style="edgeLabel;html=1;align=center;verticalAlign=middle;resizable=0;points=[];" parent="X4ZpD0xZ3pDAeyfBsWEG-22" vertex="1" connectable="0">
          <mxGeometry x="-0.1653" y="11" relative="1" as="geometry">
            <mxPoint as="offset" />
          </mxGeometry>
        </mxCell>
        <mxCell id="X4ZpD0xZ3pDAeyfBsWEG-24" value="" style="curved=1;endArrow=classic;html=1;rounded=0;exitX=0;exitY=1;exitDx=0;exitDy=0;entryX=0.5;entryY=0;entryDx=0;entryDy=0;" parent="1" source="X4ZpD0xZ3pDAeyfBsWEG-14" target="X4ZpD0xZ3pDAeyfBsWEG-17" edge="1">
          <mxGeometry width="50" height="50" relative="1" as="geometry">
            <mxPoint x="-59" y="549" as="sourcePoint" />
            <mxPoint x="-9" y="499" as="targetPoint" />
            <Array as="points">
              <mxPoint x="11" y="452" />
            </Array>
          </mxGeometry>
        </mxCell>
        <mxCell id="X4ZpD0xZ3pDAeyfBsWEG-25" value="&lt;div&gt;q0==101 | &lt;br&gt;&lt;/div&gt;&lt;div&gt;q0==110&lt;br&gt;&lt;/div&gt;" style="edgeLabel;html=1;align=center;verticalAlign=middle;resizable=0;points=[];" parent="X4ZpD0xZ3pDAeyfBsWEG-24" vertex="1" connectable="0">
          <mxGeometry x="-0.3546" y="10" relative="1" as="geometry">
            <mxPoint as="offset" />
          </mxGeometry>
        </mxCell>
        <mxCell id="X4ZpD0xZ3pDAeyfBsWEG-26" value="" style="curved=1;endArrow=classic;html=1;rounded=0;exitX=1;exitY=1;exitDx=0;exitDy=0;entryX=0.5;entryY=0;entryDx=0;entryDy=0;" parent="1" source="X4ZpD0xZ3pDAeyfBsWEG-14" target="X4ZpD0xZ3pDAeyfBsWEG-18" edge="1">
          <mxGeometry width="50" height="50" relative="1" as="geometry">
            <mxPoint x="76" y="547" as="sourcePoint" />
            <mxPoint x="126" y="497" as="targetPoint" />
            <Array as="points">
              <mxPoint x="130" y="444" />
            </Array>
          </mxGeometry>
        </mxCell>
        <mxCell id="X4ZpD0xZ3pDAeyfBsWEG-27" value="&lt;div&gt;q0==011&lt;br&gt;&lt;/div&gt;" style="edgeLabel;html=1;align=center;verticalAlign=middle;resizable=0;points=[];" parent="X4ZpD0xZ3pDAeyfBsWEG-26" vertex="1" connectable="0">
          <mxGeometry x="0.013" y="-10" relative="1" as="geometry">
            <mxPoint as="offset" />
          </mxGeometry>
        </mxCell>
        <mxCell id="X4ZpD0xZ3pDAeyfBsWEG-29" value="" style="curved=1;endArrow=classic;html=1;rounded=0;exitX=1;exitY=0.5;exitDx=0;exitDy=0;entryX=0.5;entryY=0;entryDx=0;entryDy=0;" parent="1" source="X4ZpD0xZ3pDAeyfBsWEG-14" target="X4ZpD0xZ3pDAeyfBsWEG-19" edge="1">
          <mxGeometry width="50" height="50" relative="1" as="geometry">
            <mxPoint x="76" y="547" as="sourcePoint" />
            <mxPoint x="126" y="497" as="targetPoint" />
            <Array as="points">
              <mxPoint x="196" y="407" />
              <mxPoint x="236" y="451" />
            </Array>
          </mxGeometry>
        </mxCell>
        <mxCell id="X4ZpD0xZ3pDAeyfBsWEG-30" value="q0==100" style="edgeLabel;html=1;align=center;verticalAlign=middle;resizable=0;points=[];" parent="X4ZpD0xZ3pDAeyfBsWEG-29" vertex="1" connectable="0">
          <mxGeometry x="-0.0272" y="-3" relative="1" as="geometry">
            <mxPoint as="offset" />
          </mxGeometry>
        </mxCell>
        <mxCell id="X4ZpD0xZ3pDAeyfBsWEG-34" value="" style="curved=1;endArrow=classic;html=1;rounded=0;exitX=0.5;exitY=1;exitDx=0;exitDy=0;entryX=0;entryY=0.5;entryDx=0;entryDy=0;" parent="1" source="X4ZpD0xZ3pDAeyfBsWEG-16" target="X4ZpD0xZ3pDAeyfBsWEG-20" edge="1">
          <mxGeometry width="50" height="50" relative="1" as="geometry">
            <mxPoint x="59" y="732" as="sourcePoint" />
            <mxPoint x="109" y="682" as="targetPoint" />
            <Array as="points">
              <mxPoint x="-97" y="639" />
            </Array>
          </mxGeometry>
        </mxCell>
        <mxCell id="X4ZpD0xZ3pDAeyfBsWEG-38" value="*" style="edgeLabel;html=1;align=center;verticalAlign=middle;resizable=0;points=[];" parent="X4ZpD0xZ3pDAeyfBsWEG-34" vertex="1" connectable="0">
          <mxGeometry x="-0.0556" y="20" relative="1" as="geometry">
            <mxPoint x="-11" y="5" as="offset" />
          </mxGeometry>
        </mxCell>
        <mxCell id="X4ZpD0xZ3pDAeyfBsWEG-35" value="" style="curved=1;endArrow=classic;html=1;rounded=0;exitX=0.5;exitY=1;exitDx=0;exitDy=0;entryX=0;entryY=0;entryDx=0;entryDy=0;" parent="1" source="X4ZpD0xZ3pDAeyfBsWEG-17" target="X4ZpD0xZ3pDAeyfBsWEG-20" edge="1">
          <mxGeometry width="50" height="50" relative="1" as="geometry">
            <mxPoint x="59" y="732" as="sourcePoint" />
            <mxPoint x="109" y="682" as="targetPoint" />
            <Array as="points">
              <mxPoint x="4" y="603" />
            </Array>
          </mxGeometry>
        </mxCell>
        <mxCell id="X4ZpD0xZ3pDAeyfBsWEG-39" value="*" style="edgeLabel;html=1;align=center;verticalAlign=middle;resizable=0;points=[];" parent="X4ZpD0xZ3pDAeyfBsWEG-35" vertex="1" connectable="0">
          <mxGeometry x="0.1183" y="6" relative="1" as="geometry">
            <mxPoint x="-9" y="-1" as="offset" />
          </mxGeometry>
        </mxCell>
        <mxCell id="X4ZpD0xZ3pDAeyfBsWEG-36" value="" style="curved=1;endArrow=classic;html=1;rounded=0;exitX=0.5;exitY=1;exitDx=0;exitDy=0;entryX=1;entryY=0;entryDx=0;entryDy=0;" parent="1" source="X4ZpD0xZ3pDAeyfBsWEG-18" target="X4ZpD0xZ3pDAeyfBsWEG-20" edge="1">
          <mxGeometry width="50" height="50" relative="1" as="geometry">
            <mxPoint x="59" y="732" as="sourcePoint" />
            <mxPoint x="109" y="682" as="targetPoint" />
            <Array as="points">
              <mxPoint x="138" y="607" />
            </Array>
          </mxGeometry>
        </mxCell>
        <mxCell id="X4ZpD0xZ3pDAeyfBsWEG-40" value="*" style="edgeLabel;html=1;align=center;verticalAlign=middle;resizable=0;points=[];" parent="X4ZpD0xZ3pDAeyfBsWEG-36" vertex="1" connectable="0">
          <mxGeometry x="-0.5693" y="-5" relative="1" as="geometry">
            <mxPoint x="5" y="4" as="offset" />
          </mxGeometry>
        </mxCell>
        <mxCell id="X4ZpD0xZ3pDAeyfBsWEG-37" value="" style="curved=1;endArrow=classic;html=1;rounded=0;exitX=0.5;exitY=1;exitDx=0;exitDy=0;entryX=1;entryY=0.5;entryDx=0;entryDy=0;" parent="1" source="X4ZpD0xZ3pDAeyfBsWEG-19" target="X4ZpD0xZ3pDAeyfBsWEG-20" edge="1">
          <mxGeometry width="50" height="50" relative="1" as="geometry">
            <mxPoint x="59" y="732" as="sourcePoint" />
            <mxPoint x="109" y="682" as="targetPoint" />
            <Array as="points">
              <mxPoint x="238" y="640" />
            </Array>
          </mxGeometry>
        </mxCell>
        <mxCell id="X4ZpD0xZ3pDAeyfBsWEG-41" value="*" style="edgeLabel;html=1;align=center;verticalAlign=middle;resizable=0;points=[];" parent="X4ZpD0xZ3pDAeyfBsWEG-37" vertex="1" connectable="0">
          <mxGeometry x="-0.1108" y="-15" relative="1" as="geometry">
            <mxPoint as="offset" />
          </mxGeometry>
        </mxCell>
        <mxCell id="X4ZpD0xZ3pDAeyfBsWEG-42" value="&lt;div&gt;S7&lt;/div&gt;&lt;div&gt;____________&lt;/div&gt;&lt;div&gt;&lt;br&gt;&lt;/div&gt;&lt;div&gt;c6=1&lt;br&gt;&lt;/div&gt;" style="ellipse;whiteSpace=wrap;html=1;aspect=fixed;" parent="1" vertex="1">
          <mxGeometry x="169.5" y="692" width="80" height="80" as="geometry" />
        </mxCell>
        <mxCell id="X4ZpD0xZ3pDAeyfBsWEG-45" value="" style="curved=1;endArrow=classic;html=1;rounded=0;exitX=1;exitY=0.5;exitDx=0;exitDy=0;entryX=1;entryY=0;entryDx=0;entryDy=0;" parent="1" source="X4ZpD0xZ3pDAeyfBsWEG-42" target="X4ZpD0xZ3pDAeyfBsWEG-14" edge="1">
          <mxGeometry width="50" height="50" relative="1" as="geometry">
            <mxPoint x="50" y="569" as="sourcePoint" />
            <mxPoint x="100" y="519" as="targetPoint" />
            <Array as="points">
              <mxPoint x="340" y="708" />
              <mxPoint x="310" y="348" />
            </Array>
          </mxGeometry>
        </mxCell>
        <mxCell id="X4ZpD0xZ3pDAeyfBsWEG-46" value="*" style="edgeLabel;html=1;align=center;verticalAlign=middle;resizable=0;points=[];" parent="X4ZpD0xZ3pDAeyfBsWEG-45" vertex="1" connectable="0">
          <mxGeometry x="-0.2352" y="6" relative="1" as="geometry">
            <mxPoint as="offset" />
          </mxGeometry>
        </mxCell>
        <mxCell id="X4ZpD0xZ3pDAeyfBsWEG-47" value="" style="curved=1;endArrow=classic;html=1;rounded=0;exitX=1;exitY=1;exitDx=0;exitDy=0;entryX=0;entryY=0.5;entryDx=0;entryDy=0;" parent="1" source="X4ZpD0xZ3pDAeyfBsWEG-20" target="X4ZpD0xZ3pDAeyfBsWEG-42" edge="1">
          <mxGeometry width="50" height="50" relative="1" as="geometry">
            <mxPoint x="82" y="794" as="sourcePoint" />
            <mxPoint x="132" y="744" as="targetPoint" />
            <Array as="points">
              <mxPoint x="94" y="744" />
            </Array>
          </mxGeometry>
        </mxCell>
        <mxCell id="X4ZpD0xZ3pDAeyfBsWEG-48" value="!cnt" style="edgeLabel;html=1;align=center;verticalAlign=middle;resizable=0;points=[];" parent="X4ZpD0xZ3pDAeyfBsWEG-47" vertex="1" connectable="0">
          <mxGeometry x="0.3227" y="11" relative="1" as="geometry">
            <mxPoint x="-8" y="-19" as="offset" />
          </mxGeometry>
        </mxCell>
        <mxCell id="X4ZpD0xZ3pDAeyfBsWEG-49" value="&lt;div&gt;S8&lt;/div&gt;&lt;div&gt;____________&lt;/div&gt;&lt;div&gt;c7=1&lt;/div&gt;&lt;div&gt;fin=1&lt;br&gt;&lt;/div&gt;" style="ellipse;whiteSpace=wrap;html=1;aspect=fixed;" parent="1" vertex="1">
          <mxGeometry x="-85" y="692" width="80" height="80" as="geometry" />
        </mxCell>
        <mxCell id="X4ZpD0xZ3pDAeyfBsWEG-50" value="" style="curved=1;endArrow=classic;html=1;rounded=0;exitX=0;exitY=1;exitDx=0;exitDy=0;entryX=1;entryY=0.5;entryDx=0;entryDy=0;" parent="1" source="X4ZpD0xZ3pDAeyfBsWEG-20" target="X4ZpD0xZ3pDAeyfBsWEG-49" edge="1">
          <mxGeometry width="50" height="50" relative="1" as="geometry">
            <mxPoint x="28" y="668" as="sourcePoint" />
            <mxPoint x="78" y="618" as="targetPoint" />
            <Array as="points">
              <mxPoint x="45" y="737" />
            </Array>
          </mxGeometry>
        </mxCell>
        <mxCell id="X4ZpD0xZ3pDAeyfBsWEG-51" value="cnt" style="edgeLabel;html=1;align=center;verticalAlign=middle;resizable=0;points=[];" parent="X4ZpD0xZ3pDAeyfBsWEG-50" vertex="1" connectable="0">
          <mxGeometry x="-0.3237" y="-3" relative="1" as="geometry">
            <mxPoint x="-15" y="-5" as="offset" />
          </mxGeometry>
        </mxCell>
        <mxCell id="X4ZpD0xZ3pDAeyfBsWEG-52" value="&lt;div&gt;S9&lt;/div&gt;" style="ellipse;whiteSpace=wrap;html=1;aspect=fixed;" parent="1" vertex="1">
          <mxGeometry x="24" y="781" width="80" height="80" as="geometry" />
        </mxCell>
        <mxCell id="X4ZpD0xZ3pDAeyfBsWEG-53" value="" style="curved=1;endArrow=classic;html=1;rounded=0;exitX=0.5;exitY=1;exitDx=0;exitDy=0;entryX=0;entryY=0.5;entryDx=0;entryDy=0;" parent="1" source="X4ZpD0xZ3pDAeyfBsWEG-49" target="X4ZpD0xZ3pDAeyfBsWEG-52" edge="1">
          <mxGeometry width="50" height="50" relative="1" as="geometry">
            <mxPoint x="28" y="788" as="sourcePoint" />
            <mxPoint x="78" y="738" as="targetPoint" />
            <Array as="points">
              <mxPoint x="-40" y="826" />
            </Array>
          </mxGeometry>
        </mxCell>
        <mxCell id="X4ZpD0xZ3pDAeyfBsWEG-54" value="*" style="edgeLabel;html=1;align=center;verticalAlign=middle;resizable=0;points=[];" parent="X4ZpD0xZ3pDAeyfBsWEG-53" vertex="1" connectable="0">
          <mxGeometry x="-0.5054" y="12" relative="1" as="geometry">
            <mxPoint x="-12" y="6" as="offset" />
          </mxGeometry>
        </mxCell>
        <mxCell id="X4ZpD0xZ3pDAeyfBsWEG-55" value="" style="curved=1;endArrow=classic;html=1;rounded=0;exitX=0.5;exitY=1;exitDx=0;exitDy=0;entryX=0;entryY=0.5;entryDx=0;entryDy=0;" parent="1" source="X4ZpD0xZ3pDAeyfBsWEG-52" target="X4ZpD0xZ3pDAeyfBsWEG-1" edge="1">
          <mxGeometry width="50" height="50" relative="1" as="geometry">
            <mxPoint x="-8" y="612" as="sourcePoint" />
            <mxPoint x="-129" y="313" as="targetPoint" />
            <Array as="points">
              <mxPoint x="69" y="893" />
              <mxPoint x="-74" y="905" />
              <mxPoint x="-160" y="775" />
              <mxPoint x="-160" y="155" />
            </Array>
          </mxGeometry>
        </mxCell>
        <mxCell id="X4ZpD0xZ3pDAeyfBsWEG-56" value="*" style="edgeLabel;html=1;align=center;verticalAlign=middle;resizable=0;points=[];" parent="X4ZpD0xZ3pDAeyfBsWEG-55" vertex="1" connectable="0">
          <mxGeometry x="-0.5855" y="-5" relative="1" as="geometry">
            <mxPoint x="-17" y="-60" as="offset" />
          </mxGeometry>
        </mxCell>
        <mxCell id="Z1GMpkmKqkrvlCKfjG69-1" value="START" style="ellipse;whiteSpace=wrap;html=1;aspect=fixed;" parent="1" vertex="1">
          <mxGeometry x="35.5" y="144.5" width="67" height="67" as="geometry" />
        </mxCell>
      </root>
    </mxGraphModel>
  </diagram>
</mxfile>
